Coordinates
version=1
nRows=26
nColumns=24
inDegrees=yes

Units are S.I. units (second, meters, Newtons, ...)
Angles are in degrees.

endheader
time	pelvis_tilt	pelvis_list	pelvis_rotation	pelvis_tx	pelvis_ty	pelvis_tz	hip_flexion_r	hip_adduction_r	hip_rotation_r	knee_angle_r	ankle_angle_r	subtalar_angle_r	mtp_angle_r	hip_flexion_l	hip_adduction_l	hip_rotation_l	knee_angle_l	ankle_angle_l	subtalar_angle_l	mtp_angle_l	lumbar_extension	lumbar_bending	lumbar_rotation
      1.88000000	     22.81006480	     -6.92690814	      9.07558471	      0.11749171	      0.85485494	      0.01071143	    -21.92851568	     14.51561648	    -16.18608531	     -3.04880047	     22.24664688	     14.92966200	     33.94038010	     -4.58332402	    -12.94048728	     -5.79005512	    -67.74107655	     16.50649741	     -2.50703669	     49.04619365	    -38.13435786	     12.15005933	     -6.92687664
      1.88500000	     22.71993868	     -6.76396318	      8.81082215	      0.12282769	      0.85530189	      0.01139962	    -22.40225208	     14.34184070	    -16.04628847	     -2.78317913	     22.37704094	     15.10566733	     33.90090432	     -4.00075156	    -12.58260122	     -6.17220168	    -66.87093088	     17.15412221	     -2.23826909	     49.01321129	    -38.11380060	     11.78474773	     -6.81199702
      1.89000000	     22.65995410	     -6.58872783	      8.59885371	      0.12818626	      0.85573985	      0.01196551	    -22.90380354	     14.17030275	    -16.02179896	     -2.52061398	     22.50097414	     15.38660596	     33.84608241	     -3.46653497	    -12.21564031	     -6.51892724	    -65.88873842	     17.83028794	     -1.93732078	     48.92009723	    -38.11118548	     11.44529653	     -6.73120535
      1.89500000	     22.60761504	     -6.39260251	      8.43800897	      0.13354038	      0.85615233	      0.01235844	    -23.37607872	     13.97673105	    -16.18481722	     -2.34598748	     22.74049604	     15.94554934	     33.20612802	     -2.95513805	    -11.80597301	     -6.80170580	    -64.80331494	     18.57314502	     -1.58748776	     47.65852547	    -38.10599504	     11.12752898	     -6.69326526
      1.90000000	     22.56085730	     -6.22449559	      8.22780851	      0.13892407	      0.85653088	      0.01289235	    -23.89184923	     13.80933531	    -16.08272846	     -2.07843990	     22.85649126	     16.09799311	     33.16385685	     -2.49100649	    -11.45582513	     -7.19347882	    -63.60172585	     19.17788333	     -1.29332941	     47.63612120	    -38.10798398	     10.79759267	     -6.59941989
      1.90500000	     22.54072283	     -6.03588323	      8.05198014	      0.14431114	      0.85691579	      0.01331512	    -24.42047458	     13.62681767	    -16.07604696	     -1.84608323	     22.98235357	     16.33233257	     33.10544826	     -2.08393192	    -11.07646235	     -7.55181246	    -62.28165112	     19.76400560	     -1.01560940	     47.55309958	    -38.13295796	     10.47586874	     -6.53725744
      1.91000000	     22.53668899	     -5.83980778	      7.89287874	      0.14970216	      0.85729548	      0.01364972	    -24.95315945	     13.43387148	    -16.10992662	     -1.64218316	     23.08387003	     16.63006526	     32.98960765	     -1.72555471	    -10.67983787	     -7.88866294	    -60.84997576	     20.32171603	     -0.75190585	     47.36126054	    -38.17193831	     10.16548422	     -6.46521673
      1.91500000	     22.52952153	     -5.63207994	      7.77690417	      0.15515497	      0.85759880	      0.01386898	    -25.45523155	     13.23687893	    -16.27503872	     -1.51398080	     23.37717005	     17.07952885	     32.25291607	     -1.38388368	    -10.26620729	     -8.19646977	    -59.34187532	     20.94637479	     -0.46953030	     46.18876409	    -38.18918869	      9.87369694	     -6.48579251
      1.92000000	     22.52610446	     -5.44966243	      7.62258221	      0.16059550	      0.85787592	      0.01418833	    -25.98933187	     13.06232479	    -16.18845054	     -1.30502100	     23.52508108	     17.11297952	     32.20876013	     -1.08364246	     -9.89551797	     -8.56214752	    -57.72981537	     21.45477571	     -0.19513031	     46.17364158	    -38.21849041	      9.57825323	     -6.43519998
      1.92500000	     22.55651722	     -5.24851743	      7.49061719	      0.16605905	      0.85817772	      0.01440435	    -26.54587474	     12.87096108	    -16.17190794	     -1.13612910	     23.64751288	     17.23480254	     32.14480913	     -0.86295233	     -9.49661045	     -8.90400030	    -55.99612634	     21.93637963	      0.06452497	     46.11068245	    -38.27705634	      9.28788842	     -6.40317584
      1.93000000	     22.60509950	     -5.04760285	      7.37011784	      0.17153412	      0.85845778	      0.01455626	    -27.10988688	     12.67940982	    -16.17693332	     -0.99497643	     23.76332994	     17.37562854	     32.04158810	     -0.69421786	     -9.09657290	     -9.24117856	    -54.16992344	     22.40051734	      0.32806887	     45.99233531	    -38.35214966	      9.01148002	     -6.38175825
      1.93500000	     22.64255843	     -4.84240253	      7.26345975	      0.17702516	      0.85866970	      0.01464865	    -27.65873251	     12.48863255	    -16.17319609	     -0.85691316	     23.96619891	     17.42214573	     31.94880241	     -0.54035235	     -8.68435418	     -9.55538576	    -52.26433059	     22.84513537	      0.61785278	     45.88881426	    -38.41190222	      8.74409871	     -6.38622547
      1.94000000	     22.71271837	     -4.63872705	      7.14754485	      0.18256000	      0.85890359	      0.01473721	    -28.24000408	     12.29493488	    -16.17058188	     -0.73729219	     24.07244836	     17.52316143	     31.77974211	     -0.47390208	     -8.28148127	     -9.90579032	    -50.24915973	     23.28453049	      0.92907484	     45.71238332	    -38.50190061	      8.47318340	     -6.38516687
      1.94500000	     22.78428929	     -4.43352860	      7.04322532	      0.18807587	      0.85908933	      0.01476319	    -28.81383632	     12.10260446	    -16.14875836	     -0.63179426	     24.24416567	     17.53883126	     31.60040947	     -0.43919087	     -7.86576443	    -10.22138188	    -48.14885405	     23.70133847	      1.28829207	     45.54020870	    -38.59551667	      8.21458893	     -6.39640118
      1.95000000	     22.84568014	     -4.22608106	      6.96491157	      0.19356439	      0.85921509	      0.01471559	    -29.35688358	     11.91499348	    -16.11528809	     -0.56468520	     24.48986773	     17.43919111	     31.49041586	     -0.41529596	     -7.43716350	    -10.48246864	    -45.97321319	     24.06627636	      1.69413424	     45.44963941	    -38.67767000	      7.97271115	     -6.45144359
      1.95500000	     22.94402810	     -4.01774317	      6.84706672	      0.19913281	      0.85938526	      0.01466700	    -29.95675271	     11.71104720	    -16.10194096	     -0.47199192	     24.60362159	     17.41500368	     31.32267053	     -0.50439210	     -7.01475186	    -10.83582946	    -43.67725683	     24.42707696	      2.13334112	     45.32408816	    -38.79481251	      7.71669320	     -6.43994437
      1.96000000	     23.03661641	     -3.81215482	      6.74758941	      0.20467289	      0.85950255	      0.01457515	    -30.53466405	     11.51558537	    -16.07559472	     -0.40888351	     24.77370605	     17.34614264	     31.15021995	     -0.61695627	     -6.58373588	    -11.13655772	    -41.30076361	     24.74584142	      2.61927837	     45.20458666	    -38.90695081	      7.47344152	     -6.47055180
      1.96500000	     23.14511011	     -3.60863129	      6.64884142	      0.21021494	      0.85960115	      0.01443723	    -31.12188584	     11.32019708	    -16.05392493	     -0.36409525	     24.95389783	     17.25584514	     30.98266144	     -0.79132532	     -6.14944909	    -11.43324926	    -38.83516112	     25.01390416	      3.15049422	     45.09977940	    -39.03451574	      7.23870404	     -6.50268615
      1.97000000	     23.25877252	     -3.40330481	      6.55408449	      0.21573149	      0.85966846	      0.01426023	    -31.70042740	     11.12113453	    -16.03477259	     -0.34694890	     25.15959733	     17.13428980	     30.83791170	     -1.01215542	     -5.70581664	    -11.71256206	    -36.28666717	     25.22020404	      3.72007152	     45.02063298	    -39.17250676	      7.00845743	     -6.58542574
      1.97500000	     23.36730652	     -3.20854863	      6.45377863	      0.22128051	      0.85970067	      0.01403327	    -32.27064553	     10.92588590	    -16.03748593	     -0.33711426	     25.34133000	     17.02819832	     30.70199539	     -1.27543625	     -5.26233678	    -11.99613200	    -33.65469588	     25.37100705	      4.30832370	     44.95693161	    -39.29927359	      6.79076275	     -6.64323505
      1.98000000	     23.49987027	     -3.01783152	      6.34653218	      0.22685116	      0.85972361	      0.01379456	    -32.86701326	     10.73202295	    -16.05964228	     -0.32988489	     25.50365872	     16.95406004	     30.56312479	     -1.61574626	     -4.82037950	    -12.28846305	    -30.94303518	     25.44556259	      4.92239955	     44.90418868	    -39.44871775	      6.57451158	     -6.68485491
      1.98500000	     23.62519743	     -2.84152417	      6.23932354	      0.23246564	      0.85968364	      0.01351865	    -33.45380210	     10.54909307	    -16.11797421	     -0.32720203	     25.66184825	     16.91930181	     30.41586615	     -1.98935594	     -4.38528320	    -12.57456894	    -28.17663863	     25.45337365	      5.54318225	     44.87263505	    -39.58068249	      6.37357675	     -6.70041773
      1.99000000	     23.75688147	     -2.68050181	      6.13886309	      0.23804476	      0.85960022	      0.01318580	    -34.02929785	     10.37594349	    -16.18298905	     -0.36035627	     25.84200892	     16.88728551	     30.28407133	     -2.40029471	     -3.95707350	    -12.83303943	    -25.36977694	     25.35276817	      6.16534532	     44.87218075	    -39.72596405	      6.19726918	     -6.75919013
      1.99500000	     23.86938816	     -2.54187186	      6.04529058	      0.24367806	      0.85943650	      0.01281765	    -34.58028635	     10.22346679	    -16.27155033	     -0.40410173	     26.02292193	     16.87443911	     30.17020824	     -2.82067480	     -3.54592119	    -13.07032399	    -22.54853332	     25.15952353	      6.77869305	     44.91398160	    -39.83623798	      6.04527774	     -6.80320222
      2.00000000	     23.98428664	     -2.42871355	      5.95977759	      0.24931267	      0.85920220	      0.01241718	    -35.12419820	     10.09417678	    -16.37125925	     -0.46540807	     26.20687798	     16.87505882	     30.07941948	     -3.26134058	     -3.16043776	    -13.28740574	    -19.74250323	     24.86818932	      7.37864907	     44.99755672	    -39.94874371	      5.92227992	     -6.85474114
      2.00500000	     24.09755101	     -2.34709742	      5.88335574	      0.25496592	      0.85889162	      0.01197328	    -35.65760983	      9.99255483	    -16.49157883	     -0.54497859	     26.39237955	     16.92503942	     30.00120227	     -3.71376396	     -2.80789704	    -13.48324318	    -16.97769136	     24.47575501	      7.95963197	     45.15012316	    -40.05280578	      5.83674257	     -6.88858089
